M48
;DRILL file {KiCad 4.0.4-stable} date 12/16/18 15:37:49
;FORMAT={3:3/ absolute / metric / suppress leading zeros}
FMAT,2
METRIC,TZ
T1C0.400
T2C1.000
T3C1.024
%
G90
G05
M71
T1
X69088Y-125349
X69723Y-149860
X69748Y-157480
X70993Y-151130
X71882Y-87630
X73330Y-150546
X74422Y-88392
X74422Y-121412
X74930Y-101092
X74930Y-105378
X75235Y-158902
X75387Y-144374
X75489Y-131623
X75489Y-134264
X75489Y-152298
X75590Y-142037
X75590Y-154838
X76962Y-90932
X77114Y-168351
X78232Y-74676
X78994Y-167665
X79248Y-74422
X80010Y-88646
X80162Y-168478
X80416Y-154534
X80518Y-107188
X81585Y-156337
X82448Y-131674
X82550Y-142138
X82601Y-133756
X82601Y-144272
X82804Y-90043
X82931Y-79375
X83058Y-85344
X83185Y-166421
X86004Y-167843
X86030Y-170180
X86106Y-109220
X87122Y-75438
X87173Y-171044
X88087Y-152451
X88138Y-88646
X88163Y-164490
X88392Y-154178
X88798Y-142138
X88798Y-144272
X88900Y-134518
X89103Y-130353
X89408Y-81788
X89662Y-138811
X89916Y-152603
X90424Y-106680
X90881Y-98908
X91846Y-169037
X92100Y-101041
X92354Y-173228
X92583Y-168224
X92786Y-166472
X92837Y-165608
X92913Y-172517
X92964Y-164541
X93142Y-160833
X93320Y-171374
X93472Y-157099
X93574Y-170409
X93650Y-165913
X93675Y-147447
X93878Y-145644
X94056Y-161188
X94132Y-154661
X94183Y-143916
X94259Y-168783
X94336Y-157658
X94691Y-128753
X94742Y-68834
X94793Y-162458
X94996Y-155372
X95504Y-93472
X95529Y-168427
X95580Y-167361
X96266Y-99822
X96571Y-131724
X96571Y-134468
X96672Y-144729
X96749Y-164922
X96825Y-154635
X96977Y-127889
X97130Y-93370
X98196Y-101702
X98298Y-164236
X98425Y-156439
X98958Y-145161
X99060Y-76454
X99187Y-77978
X99644Y-164516
X99644Y-165405
X100000Y-172187
X100152Y-159995
X100330Y-121412
X100330Y-161442
X100508Y-124790
X100533Y-171475
X101016Y-164186
X101143Y-99568
X101194Y-130962
X101244Y-101498
X101270Y-161544
X101321Y-150241
X101371Y-171501
X101600Y-129794
X101727Y-158699
X101905Y-164160
X102184Y-161696
X102337Y-171552
X102667Y-159944
X103022Y-156413
X103124Y-130810
X103251Y-136271
X103353Y-171577
X103378Y-164313
X103429Y-152349
X103530Y-161544
X103683Y-130683
X103683Y-144831
X103708Y-124587
X103734Y-129692
X103784Y-133934
X103886Y-132131
X104013Y-88138
X104038Y-142164
X104191Y-165202
X104267Y-118745
X104267Y-143993
X104394Y-81280
X104902Y-96139
X105004Y-109728
X105029Y-129057
X105207Y-170104
X105270Y-67438
X105537Y-135001
X105867Y-170663
X106172Y-76708
X106629Y-172923
X106680Y-82296
X106985Y-170129
X107086Y-167894
X107239Y-155245
X107264Y-156566
X107340Y-162662
X107823Y-146558
X107874Y-164973
X107950Y-89408
X108306Y-152451
X108372Y-86850
X108394Y-114808
X108394Y-117348
X108458Y-91948
X108585Y-112522
X108864Y-161519
X109347Y-135890
X109474Y-140589
X109474Y-144272
X109779Y-151740
X110312Y-164643
X110363Y-161239
X111684Y-158217
X111887Y-161112
X111989Y-168504
X112245Y-102090
X112245Y-114790
X112245Y-119870
X112245Y-122410
X112245Y-124950
X112268Y-112014
X112522Y-166091
X113411Y-159563
X114427Y-103251
X114554Y-100711
X114681Y-133731
X114960Y-144399
X115011Y-142469
X115062Y-105918
X115316Y-98552
X115519Y-134137
X115570Y-94742
X115951Y-132334
X115976Y-166421
X116078Y-121920
X116205Y-108331
X116281Y-98044
X116357Y-149149
X116484Y-128016
X116586Y-94869
X117094Y-78486
X117348Y-76454
X117475Y-82042
X118212Y-145339
X118491Y-110744
X118872Y-156210
X119126Y-117602
X119253Y-80264
X120269Y-96774
X120269Y-101981
X120269Y-109855
X120396Y-108204
X120498Y-71323
X120650Y-103378
X120777Y-104902
X120904Y-100838
X121539Y-99441
X121666Y-114935
X121666Y-116967
X122530Y-131216
X122682Y-135179
X122885Y-150673
X122936Y-118237
X123241Y-142138
X123596Y-144170
X124333Y-120777
X125781Y-165506
X126111Y-104013
X128016Y-104140
X128016Y-108585
X128016Y-150749
X128905Y-118745
X129159Y-117475
X129438Y-144069
X129464Y-148920
X129489Y-142138
X129642Y-134163
X129692Y-145644
X129692Y-152095
X129743Y-132283
X130556Y-111951
X130810Y-100965
X130937Y-118110
X131013Y-155092
X131928Y-131826
X131953Y-134010
X133223Y-107696
X133858Y-133147
X134112Y-98933
X135001Y-111760
X136017Y-99187
X136271Y-100965
T2
X73914Y-68326
X73914Y-70866
X114046Y-68453
X116586Y-68453
X118491Y-124206
X121031Y-124206
T3
X83312Y-69088
T0
M30
