G04 #@! TF.FileFunction,Soldermask,Top*
%FSLAX46Y46*%
G04 Gerber Fmt 4.6, Leading zero omitted, Abs format (unit mm)*
G04 Created by KiCad (PCBNEW 4.0.4-stable) date 12/16/18 15:37:44*
%MOMM*%
%LPD*%
G01*
G04 APERTURE LIST*
%ADD10C,0.100000*%
%ADD11R,4.800000X1.000000*%
%ADD12R,2.200000X1.800000*%
%ADD13R,2.400000X2.400000*%
%ADD14C,1.300000*%
%ADD15R,1.100000X1.900000*%
%ADD16R,1.400000X1.200000*%
%ADD17R,2.100000X2.100000*%
%ADD18O,2.100000X2.100000*%
%ADD19R,2.400000X2.100000*%
%ADD20R,0.859740X0.938480*%
%ADD21C,2.023060*%
%ADD22C,0.938480*%
%ADD23C,2.400000*%
G04 APERTURE END LIST*
D10*
D11*
X86126000Y-91136000D03*
X86126000Y-91936000D03*
X86126000Y-92736000D03*
X86126000Y-93536000D03*
X86126000Y-94336000D03*
X86126000Y-95136000D03*
X86126000Y-95936000D03*
X86126000Y-96736000D03*
X86126000Y-97536000D03*
X86126000Y-98336000D03*
X86126000Y-99136000D03*
X86126000Y-99936000D03*
X86126000Y-100736000D03*
X86126000Y-101536000D03*
X86126000Y-102336000D03*
X86126000Y-103136000D03*
X86126000Y-103936000D03*
X86126000Y-104736000D03*
D12*
X100470000Y-67438000D03*
X100470000Y-70738000D03*
X105270000Y-70738000D03*
X105270000Y-67438000D03*
D13*
X85090000Y-157465000D03*
X85090000Y-163465000D03*
X71120000Y-126985000D03*
X71120000Y-132985000D03*
X71120000Y-147305000D03*
X71120000Y-153305000D03*
X106045000Y-147305000D03*
X106045000Y-153305000D03*
X133985000Y-137145000D03*
X133985000Y-143145000D03*
X92075000Y-147305000D03*
X92075000Y-153305000D03*
X85090000Y-137145000D03*
X85090000Y-143145000D03*
X123825000Y-166355000D03*
X123825000Y-172355000D03*
X85090000Y-126985000D03*
X85090000Y-132985000D03*
X127000000Y-147305000D03*
X127000000Y-153305000D03*
X92075000Y-137145000D03*
X92075000Y-143145000D03*
X99060000Y-137145000D03*
X99060000Y-143145000D03*
X106045000Y-137145000D03*
X106045000Y-143145000D03*
X120015000Y-126985000D03*
X120015000Y-132985000D03*
D10*
G36*
X101301619Y-165835482D02*
X101563249Y-165573852D01*
X102143077Y-166153680D01*
X101881447Y-166415310D01*
X101301619Y-165835482D01*
X101301619Y-165835482D01*
G37*
G36*
X104094690Y-167921447D02*
X104674518Y-167341619D01*
X104936148Y-167603249D01*
X104356320Y-168183077D01*
X104094690Y-167921447D01*
X104094690Y-167921447D01*
G37*
G36*
X102326923Y-170396320D02*
X102588553Y-170134690D01*
X103168381Y-170714518D01*
X102906751Y-170976148D01*
X102326923Y-170396320D01*
X102326923Y-170396320D01*
G37*
G36*
X99533852Y-168946751D02*
X100113680Y-168366923D01*
X100375310Y-168628553D01*
X99795482Y-169208381D01*
X99533852Y-168946751D01*
X99533852Y-168946751D01*
G37*
G36*
X99887405Y-169300305D02*
X100467233Y-168720477D01*
X100728863Y-168982107D01*
X100149035Y-169561935D01*
X99887405Y-169300305D01*
X99887405Y-169300305D01*
G37*
G36*
X100240958Y-169653858D02*
X100820786Y-169074030D01*
X101082416Y-169335660D01*
X100502588Y-169915488D01*
X100240958Y-169653858D01*
X100240958Y-169653858D01*
G37*
G36*
X100594512Y-170007412D02*
X101174340Y-169427584D01*
X101435970Y-169689214D01*
X100856142Y-170269042D01*
X100594512Y-170007412D01*
X100594512Y-170007412D01*
G37*
G36*
X100948065Y-170360965D02*
X101527893Y-169781137D01*
X101789523Y-170042767D01*
X101209695Y-170622595D01*
X100948065Y-170360965D01*
X100948065Y-170360965D01*
G37*
G36*
X101301619Y-170714518D02*
X101881447Y-170134690D01*
X102143077Y-170396320D01*
X101563249Y-170976148D01*
X101301619Y-170714518D01*
X101301619Y-170714518D01*
G37*
G36*
X102680477Y-170042767D02*
X102942107Y-169781137D01*
X103521935Y-170360965D01*
X103260305Y-170622595D01*
X102680477Y-170042767D01*
X102680477Y-170042767D01*
G37*
G36*
X103034030Y-169689214D02*
X103295660Y-169427584D01*
X103875488Y-170007412D01*
X103613858Y-170269042D01*
X103034030Y-169689214D01*
X103034030Y-169689214D01*
G37*
G36*
X103387584Y-169335660D02*
X103649214Y-169074030D01*
X104229042Y-169653858D01*
X103967412Y-169915488D01*
X103387584Y-169335660D01*
X103387584Y-169335660D01*
G37*
G36*
X103741137Y-168982107D02*
X104002767Y-168720477D01*
X104582595Y-169300305D01*
X104320965Y-169561935D01*
X103741137Y-168982107D01*
X103741137Y-168982107D01*
G37*
G36*
X104094690Y-168628553D02*
X104356320Y-168366923D01*
X104936148Y-168946751D01*
X104674518Y-169208381D01*
X104094690Y-168628553D01*
X104094690Y-168628553D01*
G37*
G36*
X103741137Y-167567893D02*
X104320965Y-166988065D01*
X104582595Y-167249695D01*
X104002767Y-167829523D01*
X103741137Y-167567893D01*
X103741137Y-167567893D01*
G37*
G36*
X103387584Y-167214340D02*
X103967412Y-166634512D01*
X104229042Y-166896142D01*
X103649214Y-167475970D01*
X103387584Y-167214340D01*
X103387584Y-167214340D01*
G37*
G36*
X103034030Y-166860786D02*
X103613858Y-166280958D01*
X103875488Y-166542588D01*
X103295660Y-167122416D01*
X103034030Y-166860786D01*
X103034030Y-166860786D01*
G37*
G36*
X102680477Y-166507233D02*
X103260305Y-165927405D01*
X103521935Y-166189035D01*
X102942107Y-166768863D01*
X102680477Y-166507233D01*
X102680477Y-166507233D01*
G37*
G36*
X102326923Y-166153680D02*
X102906751Y-165573852D01*
X103168381Y-165835482D01*
X102588553Y-166415310D01*
X102326923Y-166153680D01*
X102326923Y-166153680D01*
G37*
G36*
X100948065Y-166189035D02*
X101209695Y-165927405D01*
X101789523Y-166507233D01*
X101527893Y-166768863D01*
X100948065Y-166189035D01*
X100948065Y-166189035D01*
G37*
G36*
X100594512Y-166542588D02*
X100856142Y-166280958D01*
X101435970Y-166860786D01*
X101174340Y-167122416D01*
X100594512Y-166542588D01*
X100594512Y-166542588D01*
G37*
G36*
X100240958Y-166896142D02*
X100502588Y-166634512D01*
X101082416Y-167214340D01*
X100820786Y-167475970D01*
X100240958Y-166896142D01*
X100240958Y-166896142D01*
G37*
G36*
X99887405Y-167249695D02*
X100149035Y-166988065D01*
X100728863Y-167567893D01*
X100467233Y-167829523D01*
X99887405Y-167249695D01*
X99887405Y-167249695D01*
G37*
G36*
X99533852Y-167603249D02*
X99795482Y-167341619D01*
X100375310Y-167921447D01*
X100113680Y-168183077D01*
X99533852Y-167603249D01*
X99533852Y-167603249D01*
G37*
G36*
X100007614Y-168275000D02*
X102235000Y-166047614D01*
X104462386Y-168275000D01*
X102235000Y-170502386D01*
X100007614Y-168275000D01*
X100007614Y-168275000D01*
G37*
D13*
X113030000Y-137145000D03*
X113030000Y-143145000D03*
X120015000Y-137145000D03*
X120015000Y-143145000D03*
X127000000Y-137145000D03*
X127000000Y-143145000D03*
X81280000Y-166355000D03*
X81280000Y-172355000D03*
X120015000Y-147305000D03*
X120015000Y-153305000D03*
X113030000Y-147305000D03*
X113030000Y-153305000D03*
X127000000Y-126985000D03*
X127000000Y-132985000D03*
X133985000Y-126985000D03*
X133985000Y-132985000D03*
X71120000Y-137145000D03*
X71120000Y-143145000D03*
X92075000Y-126985000D03*
X92075000Y-132985000D03*
X133985000Y-147305000D03*
X133985000Y-153305000D03*
X89535000Y-166355000D03*
X89535000Y-172355000D03*
X78105000Y-137145000D03*
X78105000Y-143145000D03*
X78105000Y-157465000D03*
X78105000Y-163465000D03*
X133985000Y-157465000D03*
X133985000Y-163465000D03*
X96520000Y-157465000D03*
X96520000Y-163465000D03*
X105410000Y-157465000D03*
X105410000Y-163465000D03*
X114300000Y-157465000D03*
X114300000Y-163465000D03*
X127000000Y-157465000D03*
X127000000Y-163465000D03*
X99060000Y-126985000D03*
X99060000Y-132985000D03*
X113030000Y-126985000D03*
X113030000Y-132985000D03*
X116205000Y-166355000D03*
X116205000Y-172355000D03*
X99060000Y-147305000D03*
X99060000Y-153305000D03*
X78105000Y-147305000D03*
X78105000Y-153305000D03*
X85090000Y-147305000D03*
X85090000Y-153305000D03*
X106045000Y-126985000D03*
X106045000Y-132985000D03*
X78105000Y-126985000D03*
X78105000Y-132985000D03*
D14*
X127103000Y-67869000D03*
X124103000Y-67869000D03*
D15*
X127853000Y-69629000D03*
X124853000Y-69629000D03*
X123353000Y-69629000D03*
D16*
X129253000Y-66769000D03*
X121953000Y-66769000D03*
X121953000Y-68979000D03*
X129253000Y-68979000D03*
D17*
X116586000Y-68453000D03*
D18*
X114046000Y-68453000D03*
D19*
X94710000Y-68580000D03*
X90710000Y-68580000D03*
D20*
X81206340Y-70015100D03*
X82092800Y-70017640D03*
D21*
X83312000Y-69088000D03*
D22*
X82092800Y-68158360D03*
X81208880Y-68158360D03*
X81211420Y-69088000D03*
D21*
X83312000Y-69088000D03*
D17*
X73914000Y-68326000D03*
D18*
X73914000Y-70866000D03*
D23*
X127549000Y-120777000D03*
X134549000Y-120777000D03*
D17*
X121031000Y-124206000D03*
D18*
X118491000Y-124206000D03*
M02*
