G04 #@! TF.FileFunction,Paste,Top*
%FSLAX46Y46*%
G04 Gerber Fmt 4.6, Leading zero omitted, Abs format (unit mm)*
G04 Created by KiCad (PCBNEW 4.0.4-stable) date 12/16/18 15:37:44*
%MOMM*%
%LPD*%
G01*
G04 APERTURE LIST*
%ADD10C,0.100000*%
%ADD11R,4.400000X0.600000*%
%ADD12R,1.800000X1.400000*%
%ADD13R,2.000000X2.000000*%
%ADD14R,0.700000X1.500000*%
%ADD15R,1.000000X0.800000*%
%ADD16R,2.000000X1.700000*%
%ADD17R,0.459740X0.538480*%
%ADD18C,1.623060*%
%ADD19C,0.538480*%
G04 APERTURE END LIST*
D10*
D11*
X86126000Y-91136000D03*
X86126000Y-91936000D03*
X86126000Y-92736000D03*
X86126000Y-93536000D03*
X86126000Y-94336000D03*
X86126000Y-95136000D03*
X86126000Y-95936000D03*
X86126000Y-96736000D03*
X86126000Y-97536000D03*
X86126000Y-98336000D03*
X86126000Y-99136000D03*
X86126000Y-99936000D03*
X86126000Y-100736000D03*
X86126000Y-101536000D03*
X86126000Y-102336000D03*
X86126000Y-103136000D03*
X86126000Y-103936000D03*
X86126000Y-104736000D03*
D12*
X100470000Y-67438000D03*
X100470000Y-70738000D03*
X105270000Y-70738000D03*
X105270000Y-67438000D03*
D13*
X85090000Y-157465000D03*
X85090000Y-163465000D03*
X71120000Y-126985000D03*
X71120000Y-132985000D03*
X71120000Y-147305000D03*
X71120000Y-153305000D03*
X106045000Y-147305000D03*
X106045000Y-153305000D03*
X133985000Y-137145000D03*
X133985000Y-143145000D03*
X92075000Y-147305000D03*
X92075000Y-153305000D03*
X85090000Y-137145000D03*
X85090000Y-143145000D03*
X123825000Y-166355000D03*
X123825000Y-172355000D03*
X85090000Y-126985000D03*
X85090000Y-132985000D03*
X127000000Y-147305000D03*
X127000000Y-153305000D03*
X92075000Y-137145000D03*
X92075000Y-143145000D03*
X99060000Y-137145000D03*
X99060000Y-143145000D03*
X106045000Y-137145000D03*
X106045000Y-143145000D03*
X120015000Y-126985000D03*
X120015000Y-132985000D03*
D10*
G36*
X101386472Y-165835482D02*
X101563249Y-165658705D01*
X102058224Y-166153680D01*
X101881447Y-166330457D01*
X101386472Y-165835482D01*
X101386472Y-165835482D01*
G37*
G36*
X104179543Y-167921447D02*
X104674518Y-167426472D01*
X104851295Y-167603249D01*
X104356320Y-168098224D01*
X104179543Y-167921447D01*
X104179543Y-167921447D01*
G37*
G36*
X102411776Y-170396320D02*
X102588553Y-170219543D01*
X103083528Y-170714518D01*
X102906751Y-170891295D01*
X102411776Y-170396320D01*
X102411776Y-170396320D01*
G37*
G36*
X99618705Y-168946751D02*
X100113680Y-168451776D01*
X100290457Y-168628553D01*
X99795482Y-169123528D01*
X99618705Y-168946751D01*
X99618705Y-168946751D01*
G37*
G36*
X99972258Y-169300305D02*
X100467233Y-168805330D01*
X100644010Y-168982107D01*
X100149035Y-169477082D01*
X99972258Y-169300305D01*
X99972258Y-169300305D01*
G37*
G36*
X100325811Y-169653858D02*
X100820786Y-169158883D01*
X100997563Y-169335660D01*
X100502588Y-169830635D01*
X100325811Y-169653858D01*
X100325811Y-169653858D01*
G37*
G36*
X100679365Y-170007412D02*
X101174340Y-169512437D01*
X101351117Y-169689214D01*
X100856142Y-170184189D01*
X100679365Y-170007412D01*
X100679365Y-170007412D01*
G37*
G36*
X101032918Y-170360965D02*
X101527893Y-169865990D01*
X101704670Y-170042767D01*
X101209695Y-170537742D01*
X101032918Y-170360965D01*
X101032918Y-170360965D01*
G37*
G36*
X101386472Y-170714518D02*
X101881447Y-170219543D01*
X102058224Y-170396320D01*
X101563249Y-170891295D01*
X101386472Y-170714518D01*
X101386472Y-170714518D01*
G37*
G36*
X102765330Y-170042767D02*
X102942107Y-169865990D01*
X103437082Y-170360965D01*
X103260305Y-170537742D01*
X102765330Y-170042767D01*
X102765330Y-170042767D01*
G37*
G36*
X103118883Y-169689214D02*
X103295660Y-169512437D01*
X103790635Y-170007412D01*
X103613858Y-170184189D01*
X103118883Y-169689214D01*
X103118883Y-169689214D01*
G37*
G36*
X103472437Y-169335660D02*
X103649214Y-169158883D01*
X104144189Y-169653858D01*
X103967412Y-169830635D01*
X103472437Y-169335660D01*
X103472437Y-169335660D01*
G37*
G36*
X103825990Y-168982107D02*
X104002767Y-168805330D01*
X104497742Y-169300305D01*
X104320965Y-169477082D01*
X103825990Y-168982107D01*
X103825990Y-168982107D01*
G37*
G36*
X104179543Y-168628553D02*
X104356320Y-168451776D01*
X104851295Y-168946751D01*
X104674518Y-169123528D01*
X104179543Y-168628553D01*
X104179543Y-168628553D01*
G37*
G36*
X103825990Y-167567893D02*
X104320965Y-167072918D01*
X104497742Y-167249695D01*
X104002767Y-167744670D01*
X103825990Y-167567893D01*
X103825990Y-167567893D01*
G37*
G36*
X103472437Y-167214340D02*
X103967412Y-166719365D01*
X104144189Y-166896142D01*
X103649214Y-167391117D01*
X103472437Y-167214340D01*
X103472437Y-167214340D01*
G37*
G36*
X103118883Y-166860786D02*
X103613858Y-166365811D01*
X103790635Y-166542588D01*
X103295660Y-167037563D01*
X103118883Y-166860786D01*
X103118883Y-166860786D01*
G37*
G36*
X102765330Y-166507233D02*
X103260305Y-166012258D01*
X103437082Y-166189035D01*
X102942107Y-166684010D01*
X102765330Y-166507233D01*
X102765330Y-166507233D01*
G37*
G36*
X102411776Y-166153680D02*
X102906751Y-165658705D01*
X103083528Y-165835482D01*
X102588553Y-166330457D01*
X102411776Y-166153680D01*
X102411776Y-166153680D01*
G37*
G36*
X101032918Y-166189035D02*
X101209695Y-166012258D01*
X101704670Y-166507233D01*
X101527893Y-166684010D01*
X101032918Y-166189035D01*
X101032918Y-166189035D01*
G37*
G36*
X100679365Y-166542588D02*
X100856142Y-166365811D01*
X101351117Y-166860786D01*
X101174340Y-167037563D01*
X100679365Y-166542588D01*
X100679365Y-166542588D01*
G37*
G36*
X100325811Y-166896142D02*
X100502588Y-166719365D01*
X100997563Y-167214340D01*
X100820786Y-167391117D01*
X100325811Y-166896142D01*
X100325811Y-166896142D01*
G37*
G36*
X99972258Y-167249695D02*
X100149035Y-167072918D01*
X100644010Y-167567893D01*
X100467233Y-167744670D01*
X99972258Y-167249695D01*
X99972258Y-167249695D01*
G37*
G36*
X99618705Y-167603249D02*
X99795482Y-167426472D01*
X100290457Y-167921447D01*
X100113680Y-168098224D01*
X99618705Y-167603249D01*
X99618705Y-167603249D01*
G37*
G36*
X100290456Y-168275000D02*
X102235000Y-166330456D01*
X104179544Y-168275000D01*
X102235000Y-170219544D01*
X100290456Y-168275000D01*
X100290456Y-168275000D01*
G37*
D13*
X113030000Y-137145000D03*
X113030000Y-143145000D03*
X120015000Y-137145000D03*
X120015000Y-143145000D03*
X127000000Y-137145000D03*
X127000000Y-143145000D03*
X81280000Y-166355000D03*
X81280000Y-172355000D03*
X120015000Y-147305000D03*
X120015000Y-153305000D03*
X113030000Y-147305000D03*
X113030000Y-153305000D03*
X127000000Y-126985000D03*
X127000000Y-132985000D03*
X133985000Y-126985000D03*
X133985000Y-132985000D03*
X71120000Y-137145000D03*
X71120000Y-143145000D03*
X92075000Y-126985000D03*
X92075000Y-132985000D03*
X133985000Y-147305000D03*
X133985000Y-153305000D03*
X89535000Y-166355000D03*
X89535000Y-172355000D03*
X78105000Y-137145000D03*
X78105000Y-143145000D03*
X78105000Y-157465000D03*
X78105000Y-163465000D03*
X133985000Y-157465000D03*
X133985000Y-163465000D03*
X96520000Y-157465000D03*
X96520000Y-163465000D03*
X105410000Y-157465000D03*
X105410000Y-163465000D03*
X114300000Y-157465000D03*
X114300000Y-163465000D03*
X127000000Y-157465000D03*
X127000000Y-163465000D03*
X99060000Y-126985000D03*
X99060000Y-132985000D03*
X113030000Y-126985000D03*
X113030000Y-132985000D03*
X116205000Y-166355000D03*
X116205000Y-172355000D03*
X99060000Y-147305000D03*
X99060000Y-153305000D03*
X78105000Y-147305000D03*
X78105000Y-153305000D03*
X85090000Y-147305000D03*
X85090000Y-153305000D03*
X106045000Y-126985000D03*
X106045000Y-132985000D03*
X78105000Y-126985000D03*
X78105000Y-132985000D03*
D14*
X127853000Y-69629000D03*
X124853000Y-69629000D03*
X123353000Y-69629000D03*
D15*
X129253000Y-66769000D03*
X121953000Y-66769000D03*
X121953000Y-68979000D03*
X129253000Y-68979000D03*
D16*
X94710000Y-68580000D03*
X90710000Y-68580000D03*
D17*
X81206340Y-70015100D03*
X82092800Y-70017640D03*
D18*
X83312000Y-69088000D03*
D19*
X82092800Y-68158360D03*
X81208880Y-68158360D03*
X81211420Y-69088000D03*
D18*
X83312000Y-69088000D03*
M02*
